<?xml version="1.0" encoding="UTF-8"?>
<svg width="265px" height="269px" viewBox="0 0 265 269" version="1.1" xmlns="http://www.w3.org/2000/svg" xmlns:xlink="http://www.w3.org/1999/xlink">
    <title>unnamed copy 2</title>
    <defs>
        <path d="M260.915411,227.554432 C260.008756,226.865731 259.956596,226.302124 260.539368,225.267977 C260.718787,224.94881 259.302275,223.916579 258.974842,223.071305 C258.587056,222.069185 258.649047,220.900363 258.380874,219.838296 C258.298401,219.511464 257.725734,219.028607 257.455922,219.074867 C255.560413,219.399783 255.171534,218.380418 255.472205,216.872721 C256.029579,214.07713 253.910956,212.264773 252.905716,210.121752 C251.713684,207.580729 250.022445,205.277576 249.358839,202.470763 C249.286744,202.164461 248.917801,201.822574 248.607572,201.703502 C248.142775,201.525304 247.349725,201.659431 248.072864,200.834687 C248.643347,200.184034 249.33153,199.634935 249.880439,198.968405 C250.116114,198.682085 250.353156,198.01583 250.212788,197.857341 C248.661644,196.10493 249.630289,194.020213 249.397072,192.10904 C249.209733,190.573696 248.366981,189.294289 246.866631,188.656501 C246.053372,188.310508 244.939989,186.276431 245.227279,185.456887 C245.733312,184.012969 247.331701,182.42589 244.525168,181.582532 C244.513698,181.579247 244.623479,180.981698 244.76057,180.70359 C245.411887,179.382028 245.901535,178.233189 244.358856,176.997578 C243.727748,176.492275 241.688321,175.948924 243.276332,174.308742 C241.626603,174.136019 241.882214,172.75889 241.37263,171.710783 C240.793682,170.520611 240.705748,170.43904 241.999369,170.335297 C242.193262,170.319694 242.492295,169.067386 242.399171,168.438358 C241.959771,165.473603 241.806842,164.575773 243.187852,163.279942 C244.514517,162.035024 243.93393,161.294041 243.380106,160.061441 C243.036561,159.297191 241.340133,158.35748 243.02946,157.238478 C242.867519,157.006082 242.755279,156.65872 242.534623,156.563189 C241.945844,156.308621 240.926403,156.32395 240.766646,155.942099 C240.316596,154.868809 239.617216,153.198517 240.086928,152.574963 C241.375634,150.865254 240.301849,149.946073 239.189559,149.704919 C237.803906,149.404912 237.797352,148.398959 238.148817,147.907616 C239.951476,145.384933 238.619895,143.025119 237.565226,141.00117 C236.57528,139.100946 236.809863,137.489231 237.55758,135.92323 C237.995068,135.005692 237.948097,134.65395 237.546656,133.75092 C236.828706,132.135647 235.050625,130.406777 237.068751,128.475896 C235.330268,126.740456 237.245166,125.588059 237.833673,124.308104 C238.23129,123.442574 237.898122,123.094391 237.477565,122.475217 C236.79812,121.474465 237.217584,120.903741 238.420268,120.955202 C239.761133,121.012411 241.151702,121.143253 240.669427,119.047313 C242.357662,116.477275 242.850587,113.556865 243.327946,110.587457 C243.486338,109.602034 244.983957,108.662323 244.870898,107.839769 C244.652427,106.249953 245.988923,104.820542 245.116678,103.28164 C246.552852,101.595472 245.700815,100.401467 244.449795,99.042131 C243.795747,98.3318052 243.68897,97.1159027 243.334773,96.1282898 C245.982642,95.2236168 243.366725,93.3192868 244.100788,92.0302987 C244.360222,91.5745406 244.301508,90.8806385 244.634949,90.5335506 C245.572736,89.5577081 246.617028,88.7028536 244.979041,87.4754545 C245.807866,85.9483225 245.447115,83.6544767 247.210996,82.86039 C248.178549,82.424614 248.799826,81.7854577 249.550821,81.1996785 C250.428528,80.5150832 250.397123,79.8638828 249.574579,79.0952529 C247.85057,77.4840862 247.971275,75.6813095 249.140095,73.790666 C250.650822,71.3454482 250.151889,68.611173 250.093448,65.9729766 C250.083617,65.538843 248.681033,64.9089935 248.756952,64.7340809 C249.904744,62.0947896 247.665962,59.6632582 248.338853,57.083366 C248.354965,57.0225983 247.90628,56.7480485 247.660773,56.7258764 C246.265289,56.6016037 246.83823,56.0640006 247.411989,55.5628035 C248.217601,54.8587735 248.665467,53.7644065 248.412587,52.8687665 C248.267576,52.3563465 247.981926,51.8784164 247.880063,51.3610693 C247.838827,51.1516669 248.059756,50.7845968 248.265392,50.6556706 C248.600472,50.4448996 249.4252,50.8669891 248.950298,49.8172399 C248.401663,48.6038009 247.588678,47.1864341 247.797317,46.0206239 C248.230982,43.5973045 248.038728,41.6242686 246.078497,39.9906562 C246.01514,39.9378266 246.411665,39.4226693 246.48021,39.0988484 C246.594634,38.5571394 246.857346,37.8583103 246.634778,37.4676995 C245.893069,36.1663937 244.657069,35.077775 244.190634,33.7088581 C243.707267,32.2901227 244.163871,30.5631689 243.742495,29.1069326 C243.058954,26.7452021 241.573624,24.6604849 240.896637,22.2757612 C240.593235,22.4980289 240.383503,22.8995887 240.42037,23.5954069 C240.43184,23.8116525 239.506342,24.2477022 238.991023,24.2920462 C236.783919,24.4828351 234.561523,24.5017223 232.356877,24.7116722 C231.179591,24.8241746 229.884331,24.3555513 228.847686,25.5720012 C228.502775,25.9768459 226.909302,26.0400772 226.762107,25.7737392 C225.372085,23.257352 222.061429,25.2840387 220.678235,23.0999581 C220.137246,22.2456511 219.947995,21.1750984 219.473913,20.268783 C218.356707,18.133426 218.322844,18.146565 216.786719,20.0224272 C216.397841,20.4973464 216.084608,21.0187994 215.437934,20.2641296 C215.041409,19.8009808 214.397192,19.0372779 214.061566,19.1295245 C212.95146,19.4352793 211.83125,19.9323705 210.904933,20.6150497 C210.031049,21.2591331 209.545497,22.5656398 208.621637,22.9765065 C207.338939,23.5469569 205.823023,25.4756488 204.329501,23.0208505 C204.146531,22.7200228 202.929648,23.2042487 202.406136,22.9231294 C201.592605,22.4862585 200.977336,21.6875184 200.242454,21.0858629 C200.11301,20.9802037 199.686718,20.9990909 199.60288,21.1126883 C198.11045,23.1328055 196.261092,19.4380166 194.706125,21.4600499 C193.941476,22.454506 192.941971,22.0444605 191.805102,21.7318625 C190.419723,21.3508322 188.797849,21.4288449 187.368775,21.7345997 C186.16418,21.9924521 184.075324,22.9157387 183.874331,22.5508585 C182.732273,20.4727108 181.12815,23.1273309 179.611688,22.0170877 C178.812357,21.4318559 176.546539,21.3897017 175.361334,22.9307938 C175.225062,23.1078962 174.771735,23.1267835 174.484446,23.0859979 C173.013316,22.877143 171.55038,22.6091627 170.080616,22.3918221 C168.740023,22.1941901 167.284733,23.1243199 166.038082,21.9798606 C162.872437,22.9228557 159.800188,20.5353947 156.60423,21.7066794 C156.24621,21.8380692 155.660435,21.5473694 155.258175,21.3163424 C154.03501,20.613681 152.034089,20.1762627 150.606107,20.4023626 C150.315268,20.448349 149.937313,20.7242674 149.764448,20.6199768 C146.557293,18.6830731 142.929854,18.7345341 139.393901,18.3285945 C139.031512,18.2867141 138.648095,17.9678202 138.377464,17.6798577 C137.796877,17.0620522 137.28347,16.380468 136.742755,15.7251617 C136.108916,16.4343925 135.320781,17.0620522 134.891213,17.8791322 C134.56651,18.4966639 134.832225,19.4010633 134.599554,20.0987975 C134.160973,21.4148847 132.703498,21.8487446 131.718467,20.966791 C129.967695,19.3991472 127.830502,18.2995793 126.429556,16.2917799 C125.590901,15.0892901 124.573918,14.1903653 122.826696,15.3821797 C121.744445,16.120152 120.398936,14.9948537 120.185381,14.1118052 C119.60616,11.717501 118.009136,12.0065584 116.256726,11.921155 C115.405508,11.879822 115.296272,13.7069606 114.011936,12.4795614 C113.426706,11.9200601 111.646167,12.680752 110.969726,12.1382218 C110.003811,11.3638436 109.472108,12.2737175 108.889063,12.1606676 C105.787593,11.5598333 105.806983,11.4952333 103.616264,12.4081183 C103.222197,12.5723554 102.557499,12.826923 102.381357,12.6583062 C100.696126,11.0444023 98.7640227,12.2956158 96.9714679,12.1365795 C95.9929907,12.0498075 95.3116342,12.2411438 95.0568423,10.8139228 C94.9069166,9.97412339 93.7244421,9.25695441 92.3808452,9.43898394 C91.3791555,9.57475333 90.2638609,9.37055178 89.2864761,9.05001557 C88.1064594,8.66296331 88.6632875,9.55559233 88.4429048,9.91390309 C88.3060873,10.1364445 87.7549941,10.3904646 87.6880874,10.3247697 C86.764228,9.41790684 86.0596589,9.72941 85.3733867,10.6209441 C84.9875123,11.1221412 84.5126108,11.5538112 84.1166321,12.0478914 C83.1479861,13.2569507 81.9674233,13.246549 80.9031962,12.3769132 C79.1237496,10.9231405 77.5300034,9.33469334 74.9222785,9.40914752 C74.2084244,9.42940344 73.4798235,8.33832117 72.7288293,7.79770714 C71.5064839,6.91794337 70.5468498,4.62875093 68.6715491,6.98117468 C67.1447096,6.4725869 65.4185153,6.25661502 64.1404598,5.38232582 C62.4888187,4.25264781 61.2784892,4.439057 59.4952193,5.09655314 C57.9514484,5.66563494 56.4459099,7.62690049 54.2407178,5.97850675 C53.7049176,5.57804178 52.0841356,6.59275377 50.9814031,7.00827381 C49.8849515,7.42105657 48.4291152,7.60418101 47.8119345,8.41140671 C46.6065205,9.9867149 46.161932,7.6030861 45.0428141,8.17298908 C44.2036122,8.60055318 42.8130441,10.0020437 41.7357088,8.03366121 C41.2179324,7.08792884 40.8648286,8.17326281 40.4472758,8.41551264 C38.8442446,9.34509502 37.070806,9.52493472 35.2695123,9.84464975 C30.84602,10.6302509 26.4749607,11.7347459 22.111821,12.826923 C20.4263169,13.2487388 19.1064788,12.9558492 19.1720201,11.5658553 C19.3183957,8.4486338 17.9182694,6.82679174 15.1502414,5.66371884 C13.9229804,5.14801412 13.3052535,3.31156882 12.1129478,2.5328109 C11.064833,1.84821563 9.57103731,1.88489526 8.33421816,1.43625406 C7.7823057,1.23588471 7.40872023,0.321083669 6.89913654,0.268801503 C6.69595847,0.247998128 6.48185686,0.136864309 6.26229346,0 L4.57924722,0 C4.00084515,0.318346383 3.75916156,0.828576527 4.630861,1.94374692 C3.21189161,3.16895621 3.98118275,5.57639941 1.96933759,6.58673174 C0.284925901,7.4328269 1.08971858,9.66070412 0.0511618917,11.0173032 C-0.194618025,11.3386605 0.515959022,12.3366751 0.683908632,13.047822 C1.02390418,14.4876346 2.32380685,15.6361999 1.89451126,17.3155249 C1.48542425,18.9149212 3.12231849,18.2790497 3.68979701,18.8459416 C4.31680888,19.471959 5.0866462,20.012573 5.8884349,20.3903185 C6.89831727,20.8660588 6.97423596,21.5413473 6.28441366,22.1536783 C4.51343282,23.7257017 4.18572626,25.3302989 5.45149283,27.4333558 C5.80104649,28.014208 5.39496345,29.1354004 5.17048446,29.9637032 C4.55330378,32.2386617 3.70809396,34.4621593 3.25640509,36.7658593 C3.10320227,37.5470808 3.62261716,38.9931891 4.23979784,39.2904584 C5.85457189,40.0678477 4.91241555,41.417056 5.27726218,42.4290307 C5.44794268,42.90176 5.05961041,43.549402 5.12515172,44.0938482 C5.23056399,44.9741594 5.68197977,45.8421529 5.6448397,46.7005658 C5.6156192,47.3753069 4.91296172,48.0057039 4.81792682,48.698511 C4.7674054,49.0642124 5.29064353,49.703095 5.70546541,49.8996322 C6.62659392,50.3354081 7.62664509,50.6384257 8.62369228,50.8691789 C9.77175758,51.134422 9.73106735,51.8266816 9.247154,52.5460404 C8.11738565,54.2250918 7.27599907,55.9545092 7.60234019,58.0600297 C7.64985764,58.3660583 7.67662034,58.7175259 7.57448513,58.9967291 C7.25742904,59.8639013 5.73632444,59.8759454 6.14404602,61.3705036 C6.77215025,63.6700978 7.1389085,66.0414088 7.6165408,68.3823359 C9.65760646,68.7469424 9.44050087,70.7361283 10.1109339,72.0303172 C10.6085017,72.9902835 11.4034631,74.2614792 9.23623045,74.8272762 C8.54859286,75.0071159 8.12912847,76.7515884 7.87460972,77.8473241 C7.74134238,78.421333 8.13650187,79.1921528 8.45656194,79.7855964 C9.59916546,81.9045297 9.6029887,84.1772984 9.53826666,86.4848306 C9.48992994,88.1948133 9.32389195,89.8746858 11.0500862,91.1664112 C11.4365069,91.4554686 13.1200993,92.7545846 11.6495161,94.0641023 C11.6022718,94.1059828 12.0075356,94.731179 12.264239,95.0306381 C13.4379747,96.4011973 15.7111658,96.8487436 15.6620098,99.307374 C15.6549095,99.6577466 16.929688,99.943793 17.4835121,100.411322 C19.8875128,102.440198 22.0315329,104.566522 20.3501252,108.174813 C19.9372149,109.061146 21.7816566,110.013448 20.2837646,111.228529 C19.6971699,111.704269 20.3514906,113.547558 19.7952087,114.265001 C18.6698098,115.715762 19.4186193,115.565485 20.5298176,115.646235 C23.1457352,115.837024 23.5083971,116.141958 22.7582222,118.961089 C22.3690706,120.423347 24.5242874,121.632133 22.8516185,122.956979 C24.1362282,124.756197 22.7210821,126.549667 22.7617723,128.35874 C22.800824,130.103486 22.877562,132.039568 23.904922,133.104646 C25.6576059,134.922205 23.6670617,137.516057 25.6289316,139.038262 C25.3664933,139.169378 25.1155247,139.371663 24.8391588,139.417376 C24.2143316,139.51975 23.6086207,140.305078 24.2757766,140.239657 C26.4400053,140.027243 25.2545269,142.482589 26.5839231,142.682685 C26.2138878,144.587562 28.4330074,143.893934 28.8784152,144.979815 C31.1029965,143.628691 31.3597,145.173068 31.3897397,146.781497 C31.4104945,147.892014 32.0566226,147.802505 32.8220905,148.089099 C33.6274293,148.390747 33.5274788,149.259288 32.7579146,149.912131 C31.1619837,151.264898 31.2518299,151.28707 31.3992979,153.773347 C31.5118104,155.670834 31.4585581,157.581186 31.4137716,159.484147 C31.3799086,160.929982 31.6502665,162.081011 32.7112164,163.283227 C33.3486057,164.005323 33.2341815,165.67452 33.0031484,166.826644 C32.5367127,169.152242 31.3708966,171.311961 31.3932899,173.779898 C31.3979324,174.265766 30.8744212,174.756562 30.5942321,175.244894 C33.392573,176.700309 31.1884733,178.92408 31.4708471,180.766 C31.6011105,181.615106 32.0650883,182.415215 32.3936142,183.230926 C32.5809531,183.695991 32.2439615,184.728221 31.6600977,185.390645 C31.2231556,185.886367 31.405852,186.063196 32.5640216,186.398514 C32.8472147,186.480358 33.3223892,186.748612 33.3070962,186.886024 C33.0905368,188.827308 34.0687408,190.338837 34.8893727,191.963964 C35.9658887,194.096036 37.2144507,196.31269 35.462313,198.728893 C35.3765631,198.847144 35.3233108,198.988661 35.2503961,199.116493 C34.0245005,201.266905 37.1358011,203.220232 35.4025065,205.547473 C33.9761637,207.462478 34.342922,209.915908 34.2680957,212.214133 C34.2151164,213.845282 34.9819498,215.62835 33.4430944,217.140975 C33.1691863,217.41005 32.5301586,219.476975 34.6187417,219.479712 C34.8347549,219.479986 35.2189908,220.42955 35.2353762,220.947719 C35.3061062,223.167384 35.2047902,225.392798 35.2946364,227.610547 C35.3427001,228.794971 34.8060806,230.066166 35.9617924,231.169293 C36.3463014,231.536363 36.3233619,233.134664 36.05,233.267422 C33.4679455,234.522742 35.3077447,237.945718 33.0569468,239.212261 C32.1767817,239.707709 31.1002656,239.838825 30.1714906,240.264473 C27.9837763,241.267141 27.9949729,241.301631 29.7804275,242.940444 C30.2326625,243.355691 30.7351459,243.697304 29.9486502,244.303613 C29.4658292,244.675336 28.6700484,245.278908 28.7437824,245.6197 C28.9881969,246.747188 29.4232273,247.89548 30.0529701,248.859552 C30.6472113,249.769152 31.9222629,250.325916 32.2816478,251.272743 C32.780581,252.587188 34.6201071,254.208757 32.0937627,255.57083 C31.78408,255.737805 32.2005404,256.981901 31.8922231,257.490489 C31.4129523,258.281291 30.5838547,258.853931 29.9451,259.556866 C29.8325874,259.680592 29.8284911,260.10843 29.9371804,260.198486 C31.8687375,261.801167 28.0878231,263.452572 30.0180147,265.118484 C30.5824893,265.605174 30.646392,266.148799 30.5281446,266.744706 C30.9145652,266.785492 31.3181905,266.798357 31.7458475,266.773448 C31.9263592,266.762772 32.337904,267.20238 32.3024025,267.357311 C31.9645917,268.824496 33.069782,268.666555 33.9742521,268.845847 C36.2392506,269.294488 38.2330719,268.759349 39.875701,267.29928 C41.4631662,265.888209 43.0380692,265.681818 44.8410015,266.891698 C46.0442307,267.698924 47.2526486,267.587517 48.6970153,267.329117 C51.0062541,266.91606 53.2857263,266.509026 55.5580982,265.898611 C56.9623208,265.521413 58.663664,266.190679 60.1164964,265.893958 C61.3814437,265.635284 62.4328355,265.172409 63.8695557,265.483638 C64.4252914,265.603805 66.7257914,265.353891 66.3300857,263.189519 C65.9985559,261.376614 69.4378362,261.549337 68.8302137,259.371005 C69.2638787,259.351844 69.920111,259.15339 70.0899723,259.346643 C70.6416116,259.973481 71.0250283,260.427323 71.8006005,259.611612 C72.4442708,258.934955 73.1977228,258.542702 74.2887125,258.79508 C76.9103649,259.401115 79.4965158,256.490832 82.2118377,258.773729 C82.5095045,259.023917 86.7716014,257.204716 87.0526097,256.543114 C87.5255995,255.430407 88.4571054,255.696472 88.9341915,255.982518 C89.9686519,256.602513 90.8706642,257.020223 91.9613808,256.270207 C93.1905535,255.42548 94.5510819,255.624755 95.9222607,255.806784 C97.1776499,255.973485 98.9226873,256.664102 99.5980359,256.131426 C101.120779,254.931126 102.180364,257.423973 103.494194,256.192194 C104.826867,254.942897 106.216889,253.735206 108.45731,254.428287 C108.937127,254.576648 109.712699,253.740407 110.383405,253.416039 C110.767368,253.229903 111.528466,252.977525 111.585815,253.067035 C112.586139,254.627014 115.315388,253.716866 115.585746,254.665336 C116.343022,257.320504 117.673237,255.346373 118.647072,255.311609 C119.158567,255.293269 119.580762,254.443616 120.142779,254.286769 C121.401445,253.935302 122.889779,254.063133 123.973396,253.474616 C125.205299,252.805624 125.921611,251.091535 127.174543,250.675741 C129.999919,249.737673 131.485249,248.27651 131.508462,245.293416 C131.518566,243.962821 132.851512,243.765189 134.5108,244.272134 C138.805667,245.58521 143.107908,246.91033 147.479514,247.934076 C149.25978,248.351238 151.019564,248.632631 152.56907,249.619149 C152.972695,249.876454 153.265719,250.934141 153.834017,250.063684 C155.016218,248.252148 156.327591,249.675811 157.142215,250.135675 C158.228016,250.748827 158.800956,248.502062 159.918435,250.080382 C160.490556,250.888702 161.933284,251.153672 163.004885,251.615725 C164.082766,252.08079 165.64538,253.149701 166.201935,252.800697 C168.492331,251.364443 169.888088,253.329267 171.397723,253.968149 C173.141668,254.706122 174.339162,254.959047 176.048971,253.983752 C177.371813,253.228808 179.1062,253.129718 180.657618,252.739108 C182.40129,255.100017 183.483268,252.975335 184.750946,252.211633 C185.529795,251.742462 186.316018,250.746637 187.027414,250.810142 C189.625581,251.043085 191.302619,249.625992 193.157438,248.349322 C194.266452,247.585619 195.445376,247.648577 196.346296,248.862563 C196.714693,249.358559 197.165016,249.800084 197.523036,250.302376 C198.159333,251.195552 198.845605,251.536344 199.816708,250.728297 C199.886892,250.669993 200.423239,250.946459 200.547767,251.167358 C200.748214,251.523205 200.144142,252.340011 201.342729,252.044111 C202.335406,251.79885 203.459713,251.673208 204.451845,251.864818 C205.782606,252.12185 207.001675,251.510887 207.196933,250.71899 C207.528736,249.372793 208.19835,249.597798 209.179558,249.575626 C210.977301,249.535114 212.837309,250.848738 214.606925,249.413579 C214.791533,249.263575 215.441211,249.547432 215.825447,249.72864 C217.962093,250.735688 217.946254,250.673004 221.074213,250.2917 C221.6619,250.220531 222.143356,251.121372 223.149415,250.442251 C223.853711,249.966784 225.58919,250.803025 226.20364,250.305387 C227.552153,249.214031 227.561984,250.964525 228.413475,250.977664 C230.167251,251.004763 231.745158,251.379771 232.453004,249.130817 C232.71435,248.301419 234.118027,247.311343 235.157949,248.08271 C236.837172,249.328175 237.90058,248.533815 238.802865,247.438353 C240.310315,245.609298 242.502672,244.692581 244.334825,243.305598 C245.365735,242.524651 246.796993,243.029406 247.162932,244.312372 C247.357098,244.992862 247.043046,245.838957 247.333613,246.44855 C247.718122,247.254955 248.470208,247.90287 249.064176,248.618671 C249.639575,248.02687 250.188756,247.408517 250.80184,246.855037 C251.087218,246.596911 251.487566,246.316339 251.851321,246.299368 C255.292786,246.136226 258.795696,246.383403 262.017597,244.897604 C261.618341,244.568035 261.44493,244.232991 262.113178,244.286368 C263.993122,244.437466 264.662462,243.634073 265,242.59363 L265,234.674114 C263.171397,234.013333 262.645428,232.331818 262.49441,230.8285 C262.352131,229.409491 261.979365,228.362479 260.915411,227.554432 Z" id="path-1"></path>
    </defs>
    <g id="Page-2" stroke="none" stroke-width="1" fill="none" fill-rule="evenodd">
        <g id="1.-Home-Copy-2" transform="translate(-767.000000, -596.000000)">
            <g id="unnamed-copy-2" transform="translate(899.500000, 730.500000) scale(-1, 1) translate(-899.500000, -730.500000) translate(767.000000, 596.000000)">
                <mask id="mask-2" fill="white">
                    <use xlink:href="#path-1"></use>
                </mask>
                <use id="Mask" fill="#FFFFFF" xlink:href="#path-1"></use>
            </g>
        </g>
    </g>
</svg>