<svg xmlns="http://www.w3.org/2000/svg" width="1237.374" height="657.183" viewBox="0 0 1237.374 657.183">
  <path id="Path_16" data-name="Path 16" d="M1188.861,843.96c.218.209,1,.906,1.718,1.568-.37.627-.5,1.307-.979,1.568a15.968,15.968,0,0,0-6.154,6.482c-3.458,5.82-4,12.2-6.676,18.14-.652,1.5-.326,3.328-.13,4.983.109,1.1,1.2,2.178,1.131,3.258-.261,4.931-1.131,9.862-1.022,14.776.043,2.248,1.413,4.287-1.435,6.134-.892.575-1.609,2.23-1.24,3.032,3.5,7.371-2.871,13.051-5.024,19.429-.239.714-1.131,1.324-1.87,1.865-3.305,2.457-3.044,2.457-3.762,7.127-.283,1.795-2.153,3.433-3.371,5.228-10.569-2.091-16.419-12.267-29.336-9.653,10,5.3,19.463,10.316,29.4,15.6-.2,1.934-.37,3.816-.652,6.482,1.348,1.272,3.371,3.241,5.7,5.454-2.349,2.161-4.436,4.077-6.959,6.378.326,4.042.653,8.277,1.153,14.306-2.022,4.269-4.915,10.351-8.807,18.575-.631,3.137,3.392,7.806,4.936,12.86,1.435,4.6,1.24,8.068-2,11.8a39.7,39.7,0,0,0-8.568,15.491c-1.74,6.116-5.111,12.2-11.743,13.469-7.851-.558-13.374-1.289-18.876-1.272-8.96.035-17.876,1.429-26.77-1.011-3.088-.854-7.264-1.1-10.178-.122-12.048,4.043-21.529-4.513-32.751-3.781-1.805-2.7-5.089-3.677-8.351-4.774a46.483,46.483,0,0,0-17.289-2.457c-7.59.3-15.31-1.168-23.791-1.934,1.392-1.15,2.61-2.143,3.566-2.927-1.261-2.649-4.11-5.541-3.545-7.928,2.5-10.56-2.762-19.15-10.264-26.817-4.828-4.949-5.176-11.553-10.852-15.909-.7-.54-1.522-.976-3.305-2.126-.522,2.143-1.2,3.59-1.153,5.018.043,1.08.935,2.161,1.587,3.171,8.547,13.365,7.416,27.619,6.307,42.343-4.937,2.23-7.176,7.824-14.07,7.928-7.611.122-15.005,2.492-22.638,1.638-5.893-.645-11.308-.331-16.745,1.865-2.392.976-6.133,1.76-8.2.923-6.372-2.561-11.787-.174-17.658.784-3.654.61-7.568.3-11.374.244-1.762-.035-4.023-1.1-5.2-.54-6.828,3.311-13.331,0-19.877-.418a94,94,0,0,0-10.156-.122c-11.178.418-22.421-.226-35.687-.523-8.916,5.105-20.964,4.792-32.925,2.4-6.2-1.237-12.069-2.4-18.594-1.655-3.371.383-6.981-.593-11.482-1.063-1.609.61-4.2,1.586-6.872,2.6-7.329-1.359-14.766-2.858-22.269-4.112-7.111-1.185-14.288-2.143-21.682-3.241-1.327-4.043-6.655-4.078-10.482-4.252-7.089-.314-14.266.662-21.421,1.063-2.871.174-5.98.941-8.568.331-10.417-2.492-21.2,1.638-31.468-1.446a3.924,3.924,0,0,0-2.153.017c-6.241,2.056-12.831,2.579-18.942.592-5.48-1.795-10.33-4.844-15.136-7.179H574.318c-.13.906-.261,1.708-.413,2.6a24.09,24.09,0,0,1-3.175.261c-9.873-.488-19.224.627-28.162,4.426a20.085,20.085,0,0,1-13.092,1.1c-7.459-1.795-15.44-3.659-23.03-3.311-14.57.662-29.163-1.725-43.494-.035a121.684,121.684,0,0,1-28.706.07c-8.09-.923-16.919-2.318-25.139,2.23-3.11,1.708-8.786.592-13.266.453-7.133-.226-14.244-.836-21.355-1.046-3.849-.122-7.7.244-10.221.331-8.525-.889-15.9-2.23-23.269-2.3-10-.087-20.007.854-30.032,1.22-1.3.052-2.653-.976-3.98-1.011-5.241-.139-10.33-1.01-15.723-.592-6.089.47-12.4-.523-18.572-1.2-3.893-.418-3.849-.68-7.155-5.35.761-1.237,1.566-2.509,2.566-4.095,2.088-.366,4.5-.784,7.242-1.272,1.044-2.039,2.109-4.112,3.132-6.151-2.849-2.91-5.437-5.541-8.133-8.294,8.2-13.086.555,32.62-11.688,22.7-.2-.244-.609-.575-.522-.732.761-1.6,1.609-3.171,2.37-4.653-2.544-2.823-5.045-5.576-9-9.932,1.957,7.319-5.415,9.061-8.264,13.7,1.3,1.533,2.653,3.136,3.806,4.478-2.5,3.816-18.475-16.153-20.845-12.494-3.371,1.2-9.1,1.8-7.329-7.162.853-4.308,10.905-21.17,9.047-20.736-5.937,1.394-9.46,4.6-13.266,8.1-3.088,2.805-7.437,4.757-11.265,7.022-1.348.8-3.2,1.2-4.241,2.161-6.763,6.273-15.027,8.625-25.466,8.747-8.742.122-17.4,2.962-26.2,3.781-7.742.714-16.245,1.865-23.378.1-16.114-3.973-32.272-2.422-48.321-2.021-8.96.227-17.832,1.1-26.9.819-9.251-.276-18.536-.118-28.124.212-3.28.113-6.869.26-10.455.416-7.5.349-14.679.7-21.116-3.293-1.218-.767-3.479-.436-5.089-.593.631-2.98,1.261-5.837,2.066-9.688,5.393-2.387,8.307-7.493,10.9-13.87-2.022-1.551-4.5-3.415-8.22-6.238.979-4.165,2.2-9.445,3.436-14.707.326-1.394,1.392-2.98.913-4.165-3.762-9.322,2.327-17.652,3.523-26.8-2.784-7.127-9.155-14.393-2.936-22.949-1.2-.871-3.023-2.178-4.763-3.45,1.131-3.938,2.153-7.528,3.306-11.5-2.24-4.252-4.654-8.852-7.307-13.888,2.37-10.019,1.522-12.72-5.284-29.57.761-7.684,1.348-13.435,1.892-18.976-2.979-7.353-5.915-14.6-9.286-22.949.5-.836,1.7-2.84,3.045-5.106,5.024.749,9.764,1.464,14.483,2.178.239-.418.457-.836.674-1.254-2.414-1.2-4.828-2.4-8.155-4.06.261-3.4-.13-7.528,1.066-11.326,1.392-4.426.957-7.981-2.2-11.884-2.2-2.718-2.718-6.308-3.262-7.632,4.306-6.953,8.307-11.832,10.373-17.164,2.305-5.942-.478-11.814-3.675-17.39-1.022-1.76-2.327-3.8-2.066-5.593,1.522-10.107-2.827-19.081-7.459-28.107-3.393-6.639-1.2-13.522,5.85-17.059,4.349-2.178,9.808-4.914,9.025-8.469-1.2-5.384-.174-11.675-6.046-16.136a19.5,19.5,0,0,1-4-4.565c-3-4.182-4.5-9.27-10.656-10.647-.8-4.461-1.5-8.312-2.37-13.1.283-.174,1.935-1.15,3.61-2.161-.391-1.481-3.523-3.206-.892-4.548,7.089-3.607,8.655-8.469,9.047-15.02C-21,609.506-16.392,604.7-13.3,599.1c-1.957-3.955-2.022-8.329.7-13.226,2.131-3.851,3.566-8.835-1.37-12.773q.033-14.036.022-28.089c5.35-2.352-2.414-3.433-.8-5.7,2.414-3.363,4.241-6.987,6.524-10.838q-.294-.209-3.132-2.2c2.2-.732,3.958-1.307,5.371-1.795,0-3.624.826-7.318-.2-10.629-1.5-4.844.848-8.329,3.871-12.006.826-.976.609-2.561.652-3.868.087-2.771.022-5.541.022-9.479-.522-.331-2.414-1.533-3.871-2.457-1.261-5.7-2.457-11-4.023-18.07,1.8-5.419,8.307-11.727,8-19.777-8.307-5.524.413-15.874-9.873-20.805,2.544-5.158,3.393-9.985-2.305-14.637,9.351-3.206,17.985-6.168,28.9-9.915,3.61-.314,9.917-1.133,16.267-1.307,5.959-.157,11.809-.07,16.7-4.6,5.763,6.412,14.179,4.862,21.442,5.315,11.374.732,22.464,2.962,34.208,2.318,8.394-.453,17.028-2.544,25.9-.052,4.371,1.22,9.917.192,14.853-.366,11.961-1.377,23.943-2.893,35.817-4.7,4.088-.627,7.938-2.3,11.917-3.5,2.218-.662,4.458-1.324,8.525-2.544-2.675,2.387-3.914,3.5-6.046,5.4,13.353.767,18.4,7.179,19.92,16.223.109.645,1.218,1.272,2,1.742a8.585,8.585,0,0,0,2.175.575c-.174,8.434,4.262,15.247,12.113,20.753-1.675.993-3.066,1.812-4.784,2.84.631,2.7,1.24,5.419,1.609,7,5.763,1.289,10.765,2.161,15.505,3.537,7.981,2.335,16.049,4.6,23.6,7.684,5.458,2.23,10.134.505,16.615.662-1.783-2.143-2.436-3.938-3.653-4.234a127.963,127.963,0,0,1-28.923-10.629c-3-1.5-7.242-1.638-9.764-4.234-.631-.645-1.762-1.255-1.827-1.934-.739-7.911-8.155-13.609-10.939-20.806,3.632-2.23,7.089-4.339,10.5-6.447-1.675-3.084-2.936-5.419-4.067-7.528,1.022-3.049,1.935-5.8,2.914-8.765,11.526-7.789,22.7-3.049,33.12,1.934,4.632,2.23,8.373,3.189,13.679,2.6,3.675-.418,7.785.61,11.461,1.586,7.807,2.091,15.288,2.753,22.9-.558a17.664,17.664,0,0,1,7.263-1.167c19.463.767,38.927,1.795,58.412,2.44,3.349.122,6.763-1.115,10.395-1.777,7.285,4.077,15.723,1.011,26.553,2.753,3.61,3.154,11.243,3.729,19.376,3.59,4.937-.07,9.873,1.15,14.853,1.377,4.284.209,8.829.453,12.9-.418,10.634-2.283,21.051-3.729,32.055-1.307,3.175.7,7.089-.227,10.525-.906,5.089-1.028,9.656-2.7,15.419-.958,3.132.958,7.633-.645,11.417-1.429,7.176-1.5,14.918-1.255,21.508-4.722,1.544-.819,3.958-.819,5.959-.8,4.7.052,9.395.348,14.679.575-1.457.645-2.479,1.115-4.306,1.934,5.98,4.095,12.2.087,17.571,1.342,1.37-2.056,2.523-3.746,4-5.924,2.566,1.255,4.262,2.23,6.111,2.945,2.175.836,5.089,2.544,6.611,1.986,5.5-2.039,10.4-.07,14.4,1.69,6.154,2.7,12.352,2.6,18.833,2.823,11.482.4,22.921,1.377,34.4,1.6,9.873.192,19.768,0,29.641-.052,14.179-.07,28.358-1.2,42.537-1.708,8-.3,16.049-.279,24.074-.418,1.37-.018,2.958.139,4.045-.349,4.676-2.056,8.851-3.276,13.875.035,1.457.976,5.545-.976,8.394-.889,10.526.3,20.768-.035,30.359-4.321,2.305-1.028,5.589-.749,8.438-.871,3.806-.157,8.873-1.377,11.2.087,4.784,3.032,8.155-.8,12.265-.261a160.937,160.937,0,0,0,17.441.958c2.7.087,5.415-.261,9.329-.488,6.176,5,15.549,6.064,24.617,6.36,9.786.331,19.029,2,28.532,3.433,17.4,2.631,35.143,2.684,52.867-1.5,4.306,5.332,10.091,3.99,16.506,1.533.87,1.882,1.544,3.328,2.392,5.14h10.612c.935-1.429,2.022-3.084,3.219-4.914,5.872,1.15,11.287,2.666,16.854,3.154,6.959.61,13.787-.662,20.594-2.161,8.525-1.882,16.81-1.934,25.6,1.1,5.872,2.021,13.352.941,20.094,1.481,4.589.366,9.177.958,13.679,1.76,11.221,1.952,22.377,4.095,34.49,6.343v8.434c1.849.924,4.219,2.108,7.242,3.624,2.175,9.061,4.958,18.505,6.459,28.089.457,2.945-2.631,6.238-4.089,9.392-5.785-4.531-8.525-.3-12.417,1.446,1.566,1.516,2.784,2.683,4.328,4.2-2.479,2.509-5.241,4.635-6.937,7.2-1.783,2.666-4.219,6.116-3.393,8.573,1.066,3.084-.7,5.7-.022,8.294.761,2.945,3.588,5.559,4.241,8.5.827,3.711.544,7.6.392,11.4-.152,3.084-1.022,6.134-1.261,9.218-.5,6.691.326,12.825,5.828,18.749,4.393,4.722,6.328,10.926,9.2,16.536,2.175,4.287,4.11,8.66,6.481,13.661q2.9.68,8.612,1.986c-10.438,10.159-22.029,19.29-27.14,32.08.935,1.115,2.109,2.544,3.327,3.973-2.109,4.008-3.305,7.841-2.262,12.337a36.818,36.818,0,0,1,.109,13.888,31.7,31.7,0,0,0,2.349,17.512c.652,1.586,1.174,3.38,2.479,4.583,6,5.559,8.046,12.755,12.57,18.924.152.209-.043.575-.152,1.446a14.841,14.841,0,0,1-3.479,2.457c-4.893,1.9-9.09,3.311-7.894,9.322.652,3.258-3.284,7.109-5.415,11.239-1.3.314-3.545.854-7.546,1.812,4.175.8,6.546,1.254,8.807,1.69,4.545,4.792,9,9.531,14.831,15.717-.413,2.527-1.066,6.482-1.936,11.727,4.045,4.618,8.851,10.629,14.353,16.205,4.219,4.286,4.2,8.521,1.957,13.191,4.523,5.559,4.523,5.559,2.805,9.584,1.718.662,3.479,1.342,5.437,2.091-1.435,2.527-2.74,4.844-4.262,7.545,2.153,6.064,3.458,12.738,11.221,16.031-.544,4.844-1.087,9.409-1.653,14.358C1190.492,822.405,1187.991,832.076,1188.861,843.96Z" transform="translate(33.051 -391.121)"/>
</svg>
