<?xml version="1.0" encoding="UTF-8"?>
<svg width="2px" height="1px" viewBox="0 0 2 1" version="1.1" xmlns="http://www.w3.org/2000/svg" xmlns:xlink="http://www.w3.org/1999/xlink">
    <title>videomask</title>
    <g id="Page-1" stroke="none" stroke-width="1" fill="none" fill-rule="evenodd">
        <g id="videomask" fill="#000000" fill-rule="nonzero">
            <path d="M1.8541912,0.6886783 C1.854522,0.688995448 1.85570865,0.690053111 1.85679818,0.691057663 C1.85623672,0.692009105 1.85603945,0.693040971 1.85531259,0.693437026 C1.85132694,0.695759933 1.84808721,0.699172336 1.8459742,0.703273141 C1.84072686,0.712104704 1.8399044,0.721786039 1.8358437,0.730799697 C1.83485432,0.733075873 1.83534901,0.735849772 1.83564643,0.738361153 C1.83581184,0.740030349 1.83746737,0.741666161 1.83736267,0.743305008 C1.83696662,0.750787557 1.83564643,0.758270106 1.83581184,0.765726859 C1.83587709,0.769138088 1.83795599,0.77223217 1.83363429,0.775034901 C1.83228073,0.775907436 1.83119272,0.778418816 1.83175266,0.779635812 C1.83706373,0.790820941 1.82739605,0.799440061 1.82412898,0.809118361 C1.82376631,0.810201821 1.82241275,0.811127466 1.82129135,0.811948407 C1.81627618,0.815676783 1.81667223,0.815676783 1.8155827,0.822763278 C1.81515326,0.825487102 1.81231563,0.827972686 1.81046737,0.83069651 C1.79442944,0.82752352 1.78555235,0.812081942 1.76595144,0.816048558 C1.78112595,0.824091047 1.79548558,0.83170258 1.81056449,0.839720789 C1.810261,0.842655539 1.81000303,0.845511381 1.80957511,0.849556904 C1.81162064,0.851487102 1.81469044,0.854474962 1.81822458,0.85783308 C1.81466009,0.861112291 1.81149317,0.864019727 1.80766464,0.867511381 C1.80815933,0.873644917 1.80865554,0.88007132 1.80941426,0.88922003 C1.80634598,0.895698027 1.80195599,0.904927162 1.79605008,0.917406677 C1.79509256,0.92216692 1.80119727,0.929251897 1.80354021,0.936921093 C1.80571775,0.943901366 1.80542185,0.949163885 1.80050531,0.954827011 C1.79445746,0.961584183 1.79001314,0.969619537 1.78750379,0.978333839 C1.78486343,0.987614568 1.7797481,0.996846737 1.76968437,0.998772382 C1.75777086,0.997925645 1.74938998,0.996816388 1.74104097,0.996842185 C1.72744461,0.996895296 1.71391502,0.999010622 1.70041882,0.995308042 C1.69573293,0.99401214 1.68939605,0.993638847 1.6849742,0.995122914 C1.66669196,1.00125797 1.65230501,0.988274659 1.63527618,0.989385432 C1.63253718,0.985288316 1.62755387,0.983805766 1.62260395,0.982141123 C1.61417295,0.979252068 1.60527082,0.977986955 1.59636874,0.978412747 C1.58485129,0.978867982 1.57313657,0.976640364 1.56026707,0.975477997 C1.56237936,0.973732929 1.56422762,0.9722261 1.5656783,0.971036419 C1.5637648,0.967016692 1.55944158,0.962628225 1.56029894,0.95900607 C1.56409256,0.942981791 1.55610774,0.929946889 1.54472382,0.918312595 C1.53739757,0.910802731 1.5368695,0.900781487 1.52825645,0.894171472 C1.52719423,0.893352049 1.52594689,0.89269044 1.52324127,0.890945372 C1.52244917,0.894197269 1.52142033,0.89639302 1.52149165,0.898559939 C1.5215569,0.900198786 1.52291047,0.90183915 1.52389985,0.903371775 C1.5368695,0.923652504 1.53515326,0.945282246 1.53347041,0.96762519 C1.52597876,0.971009105 1.52258118,0.979497724 1.51211988,0.979655539 C1.50057056,0.979840668 1.48935053,0.983437026 1.47776783,0.982141123 C1.46882549,0.981162367 1.4606085,0.981638847 1.45235812,0.984971168 C1.44872838,0.9864522 1.44305159,0.987641882 1.43991502,0.986371775 C1.43024583,0.982485584 1.42202883,0.986107739 1.41311988,0.987561457 C1.40757511,0.988487102 1.40163581,0.988016692 1.39586039,0.987931715 C1.39318665,0.987878604 1.38975569,0.986262519 1.38796965,0.987112291 C1.3776085,0.992136571 1.36774052,0.987112291 1.35780728,0.986477997 C1.3526773,0.986138598 1.34753271,0.986076798 1.34239605,0.986292868 C1.32543399,0.986927162 1.30837329,0.985949924 1.28824279,0.985499241 C1.2747132,0.993245827 1.25643096,0.992770865 1.23828073,0.989141123 C1.22887253,0.987264036 1.21996662,0.985499241 1.21006525,0.986629742 C1.20494992,0.987210926 1.19947193,0.985729894 1.19264188,0.985016692 C1.1902003,0.985942337 1.18626859,0.987423369 1.18221396,0.988962064 C1.17109256,0.986899848 1.15980728,0.98462519 1.14842185,0.982722307 C1.13763126,0.980924127 1.12674052,0.97947041 1.11552049,0.977804249 C1.11350683,0.971669196 1.10542185,0.971616085 1.09961457,0.971352049 C1.08885736,0.970875569 1.07796662,0.972356601 1.06710926,0.972965099 C1.06275266,0.973229135 1.0580349,0.97439302 1.05410774,0.973467375 C1.03830046,0.969685888 1.02193778,0.975952959 1.0063566,0.971273141 C1.00528647,0.970976959 1.00415485,0.970985894 1.00308953,0.971298938 C0.99361912,0.974418816 0.98361912,0.975212443 0.974345979,0.972197269 C0.966030349,0.969473445 0.958670713,0.964846737 0.951377845,0.96130349 L0.921652504,0.96130349 C0.921455235,0.9626783 0.921256449,0.963895296 0.921025797,0.965248862 C0.919430326,0.96548704 0.917820839,0.965619348 0.916207891,0.965644917 C0.9012261,0.964904401 0.887036419,0.966596358 0.873473445,0.972361153 C0.867225663,0.975128925 0.860229008,0.975716789 0.85360698,0.974030349 C0.842288316,0.971306525 0.830177542,0.968477997 0.818660091,0.96900607 C0.796550835,0.970010622 0.774406677,0.966388467 0.752660091,0.968952959 C0.738195161,0.970706922 0.723573464,0.970742577 0.709100152,0.969059181 C0.696823976,0.967658574 0.683426404,0.96554173 0.670952959,0.972443096 C0.666233687,0.975034901 0.657620637,0.973341426 0.650822458,0.973130501 C0.639998483,0.972787557 0.629207891,0.971861912 0.618417299,0.971543247 C0.612576631,0.971358118 0.606732929,0.971913505 0.602907436,0.972045524 C0.589971168,0.97069651 0.57877997,0.968661608 0.567597876,0.968555387 C0.552423369,0.968423369 0.53723824,0.96985129 0.522025797,0.970406677 C0.520053111,0.970485584 0.518,0.968925645 0.515986343,0.968872534 C0.508033384,0.968661608 0.500311077,0.967339909 0.492127466,0.967974203 C0.482887709,0.968687405 0.473311077,0.967180577 0.463945372,0.966153263 C0.458037936,0.965518968 0.458104704,0.965121396 0.453088012,0.958034901 C0.454242792,0.956157815 0.45546434,0.954227618 0.456981791,0.951820941 C0.460150228,0.951265554 0.463810319,0.950631259 0.467971168,0.949890744 C0.469555387,0.946796662 0.471171472,0.943650986 0.472723824,0.940556904 C0.468400607,0.936141123 0.464473445,0.93214871 0.460382398,0.927971168 C0.472825493,0.908113809 0.461224583,0.97747041 0.442646434,0.962417299 C0.442342944,0.962047041 0.441722307,0.961544765 0.441854325,0.961306525 C0.443009105,0.958878604 0.444295903,0.956494689 0.445450683,0.954245827 C0.441590288,0.949962064 0.437795144,0.945784522 0.431793627,0.939174507 C0.434763278,0.950280728 0.423576631,0.952924127 0.419253414,0.959963581 C0.4212261,0.962289833 0.423279211,0.964722307 0.425028832,0.966758725 C0.421235205,0.972549317 0.39699393,0.942247344 0.393397572,0.947799697 C0.388282246,0.949620637 0.379588771,0.950531108 0.382276176,0.936931715 C0.383570561,0.930394537 0.398823976,0.904807284 0.396004552,0.905465857 C0.386995448,0.907581184 0.381649469,0.912446131 0.375874052,0.917757208 C0.371188164,0.922013657 0.364588771,0.924975721 0.35877997,0.928412747 C0.356734446,0.929626707 0.353924127,0.930233687 0.352344461,0.931691958 C0.342081942,0.941210926 0.32954173,0.94477997 0.313701062,0.944965099 C0.300435508,0.945150228 0.28729742,0.949459788 0.273943854,0.95070258 C0.262195751,0.951786039 0.249292868,0.953532625 0.238468892,0.950854325 C0.214016692,0.944825493 0.189497724,0.947179059 0.165144158,0.947787557 C0.1515478,0.948132018 0.138084977,0.949456753 0.124324734,0.949030349 C0.110286798,0.948611533 0.0961972686,0.94885129 0.0816479514,0.949352049 C0.0766707132,0.94952352 0.0712245827,0.949746586 0.0657830046,0.949983308 C0.0544021244,0.950512898 0.043508346,0.951045524 0.0337405159,0.944986343 C0.031892261,0.943822458 0.028461305,0.944324734 0.0260182094,0.944086495 C0.0269757208,0.939564492 0.0279317147,0.935229135 0.0291532625,0.929385432 C0.0373368741,0.925763278 0.0417587253,0.918015175 0.045693475,0.908338392 C0.0426251897,0.905984825 0.0388649469,0.903156297 0.0332200303,0.898872534 C0.0347056146,0.892552352 0.0365584219,0.884540212 0.0384339909,0.876555387 C0.0389286798,0.874440061 0.0405462822,0.872033384 0.0398194234,0.870235205 C0.0341107739,0.85608953 0.0433505311,0.843449165 0.0451654021,0.829567527 C0.0409408194,0.818752656 0.0312731411,0.807726859 0.0407101669,0.794743551 C0.0388892261,0.793421851 0.0361229135,0.791438543 0.0334825493,0.789508346 C0.035198786,0.783532625 0.0367496206,0.778084977 0.0384992413,0.772057663 C0.0351001517,0.765605463 0.0314370258,0.75862519 0.0274112291,0.750983308 C0.0310075873,0.73577997 0.0297207891,0.731681335 0.0193930197,0.706112291 C0.0205477997,0.6944522 0.0214385432,0.685725341 0.0222640364,0.677317147 C0.0177435508,0.666159332 0.0132883156,0.655162367 0.00817298938,0.642493171 C0.00893171472,0.641224583 0.0107526555,0.638183612 0.0127936267,0.634745068 C0.0204172989,0.635881639 0.0276100152,0.636966616 0.0347708649,0.638050076 C0.0351335357,0.637415781 0.0354643399,0.636781487 0.0357936267,0.636147193 C0.0321305008,0.634326252 0.0284673748,0.632505311 0.0234188164,0.629986343 C0.023814871,0.624827011 0.0232215478,0.618562974 0.0250364188,0.612799697 C0.0271487102,0.60608346 0.0264886191,0.600688923 0.0216980273,0.594766313 C0.0183596358,0.590641882 0.0175735964,0.585194234 0.0167481032,0.583185129 C0.0232822458,0.572634294 0.029353566,0.565230653 0.0324886191,0.557139605 C0.0359863429,0.548122914 0.0317632777,0.539212443 0.0269119879,0.530751138 C0.0253611533,0.528080425 0.0233808801,0.524984825 0.0237769347,0.522264036 C0.0260864947,0.506927162 0.0194871017,0.49330956 0.0124582701,0.47961305 C0.00730955994,0.469538695 0.0106373293,0.459094082 0.0213353566,0.453726859 C0.0279347496,0.450421851 0.0362185129,0.446270106 0.035030349,0.440875569 C0.0332094082,0.432705615 0.0347663126,0.423159332 0.0258558422,0.416389985 C0.0234834178,0.414411893 0.0214353467,0.412074532 0.0197860395,0.409462822 C0.0152336874,0.403116844 0.0129575114,0.395396055 0.00361608498,0.393306525 C0.00240212443,0.386537178 0.00133990895,0.380693475 1.97268589e-05,0.373427921 C0.000449165402,0.373163885 0.00295599393,0.371682853 0.00549772382,0.37014871 C0.00490440061,0.367901366 0.000151745068,0.365283763 0.00414415781,0.363247344 C0.0149013657,0.3577739 0.0172776935,0.350396055 0.0178725341,0.340455235 C0.0182867982,0.332905918 0.0252792109,0.32561305 0.0299711684,0.317115326 C0.0270015175,0.311113809 0.0269028832,0.30447648 0.0310333839,0.297045524 C0.0342670713,0.291201821 0.0364446131,0.283638847 0.0289544765,0.277663126 C0.0289878604,0.263463834 0.0289989884,0.249255943 0.0289878604,0.235039454 C0.0371062215,0.23147041 0.0253247344,0.229830046 0.0277738998,0.226389985 C0.0314370258,0.221286798 0.0342094082,0.215787557 0.0376737481,0.209943854 C0.0373763278,0.209732423 0.0357921093,0.208619626 0.0329210926,0.206605463 C0.0362594841,0.205494689 0.0389271624,0.204622155 0.0410713202,0.203881639 C0.0410713202,0.198382398 0.0423247344,0.192776935 0.04076783,0.187752656 C0.038491654,0.180402124 0.0420546282,0.175113809 0.0466418816,0.169534143 C0.0478952959,0.168053111 0.0475660091,0.165647951 0.0476312595,0.163664643 C0.0477632777,0.159459788 0.0476646434,0.155256449 0.0476646434,0.149280728 C0.0468725341,0.148778452 0.0440015175,0.146954476 0.0417905918,0.145552352 C0.0398770865,0.136902883 0.0380622155,0.128860395 0.0356858877,0.118132018 C0.0384172989,0.109908953 0.0482913505,0.100336874 0.0478254932,0.0881213961 C0.0352200303,0.0797389985 0.0484522003,0.0640333839 0.0328437026,0.0565508346 C0.0367040971,0.048723824 0.0379924127,0.0413990895 0.0293459788,0.034339909 C0.0435356601,0.0294749621 0.0566373293,0.0249802731 0.0732003035,0.0192943854 C0.0786783005,0.0188179059 0.0882488619,0.0175751138 0.0978846737,0.0173110774 C0.106927162,0.0170728376 0.115804249,0.0172048558 0.1232261,0.0103308042 C0.131971168,0.020060698 0.144742033,0.0177086495 0.155763278,0.0183960546 C0.173022762,0.0195068285 0.18985129,0.0228907436 0.207672231,0.0219135053 C0.220409712,0.0212261002 0.233511381,0.0180531108 0.246974203,0.0218345979 C0.25360698,0.0236858877 0.262022762,0.0221259484 0.269512898,0.0212792109 C0.287663126,0.0191896813 0.30584522,0.0168892261 0.323863429,0.0141471927 C0.330066768,0.0131957511 0.335908953,0.0106570561 0.341946889,0.00883611533 C0.345312595,0.00783156297 0.348711684,0.00682701062 0.354883156,0.00497572079 C0.350823976,0.00859787557 0.348943854,0.0102867982 0.345708649,0.0131699545 C0.365971168,0.0143338392 0.373629742,0.0240637329 0.375936267,0.0377875569 C0.376101669,0.0387663126 0.377784522,0.0397177542 0.378971168,0.040430956 C0.380028284,0.0408653145 0.381137961,0.0411586775 0.382271624,0.0413034901 C0.382007587,0.0541016692 0.388738998,0.0644400607 0.400652504,0.0727951442 C0.398110774,0.0743019727 0.396,0.0755447648 0.39339302,0.0771047041 C0.394350531,0.0812018209 0.395274659,0.0853277693 0.395834598,0.0877268589 C0.404579666,0.0896828528 0.412169954,0.0910060698 0.419362671,0.0930940819 C0.431473445,0.0966373293 0.443716237,0.100074355 0.455174507,0.104754173 C0.463456753,0.108138088 0.470552352,0.105520486 0.48038695,0.105758725 C0.477681335,0.102506829 0.47669044,0.0997830046 0.474843703,0.0993338392 C0.459617681,0.0957450316 0.444881121,0.0903294489 0.430954476,0.0832048558 C0.426402124,0.0809286798 0.419965099,0.0807192716 0.416138088,0.0767799697 C0.415180577,0.075801214 0.41346434,0.074875569 0.413365706,0.07384522 C0.41224431,0.0618406677 0.400990895,0.0531942337 0.396766313,0.0422731411 C0.402277693,0.0388892261 0.40752352,0.0356889226 0.412699545,0.0324901366 C0.410157815,0.0278103187 0.40824431,0.0242670713 0.406528073,0.0210667678 C0.408078907,0.0164400607 0.40946434,0.0122655539 0.410949924,0.00776631259 C0.428440061,-0.00405311077 0.445396055,0.00313960546 0.461207891,0.0107010622 C0.468236722,0.0140849772 0.473913505,0.0155402124 0.481965099,0.014646434 C0.48754173,0.0140121396 0.493778452,0.0155720789 0.499356601,0.0170531108 C0.511203338,0.0202261002 0.522555387,0.0212306525 0.534106222,0.0162063733 C0.537614987,0.0148491848 0.541370152,0.0142458146 0.545127466,0.0144355083 C0.574661608,0.015599393 0.604197269,0.0171593323 0.633764795,0.018138088 C0.638846737,0.018323217 0.644027314,0.0164461305 0.649538695,0.0154415781 C0.660593323,0.0216282246 0.673397572,0.0169757208 0.689831563,0.0196191199 C0.69530956,0.0244051593 0.706892261,0.0252776935 0.719233687,0.0250667678 C0.726725341,0.0249605463 0.734215478,0.0268118361 0.741772382,0.0271562974 C0.748273141,0.0274734446 0.755169954,0.0278437026 0.761347496,0.026522003 C0.777484067,0.0230576631 0.793291351,0.0208634294 0.809989378,0.024538695 C0.814807284,0.0256009105 0.820746586,0.0241942337 0.825960546,0.0231638847 C0.833682853,0.0216039454 0.84061305,0.0190667678 0.849358118,0.0217101669 C0.854110774,0.0231638847 0.860940819,0.0207314112 0.866682853,0.0195417299 C0.877572079,0.0172655539 0.889320182,0.0176373293 0.899320182,0.0123763278 C0.901663126,0.0111335357 0.905326252,0.0111335357 0.908362671,0.0111623672 C0.915494689,0.0112412747 0.92261912,0.0116904401 0.930637329,0.0120349014 C0.928426404,0.0130136571 0.926875569,0.0137268589 0.924103187,0.014969651 C0.933177542,0.0211836115 0.942616085,0.0151016692 0.950766313,0.0170060698 C0.95284522,0.0138861912 0.954594841,0.0113216995 0.956836115,0.00801669196 C0.960729894,0.00992109256 0.96330349,0.011400607 0.966109256,0.0124855842 C0.969409712,0.013754173 0.973831563,0.0163459788 0.976141123,0.0154992413 C0.984487102,0.0124051593 0.99192261,0.0153930197 0.997992413,0.0180637329 C1.0073308,0.0221608498 1.01673596,0.0220091047 1.02657056,0.0223474962 C1.04399393,0.0229544765 1.06135205,0.0244370258 1.07877086,0.0247754173 C1.09375266,0.0250667678 1.10876783,0.0247754173 1.12374962,0.0246965099 C1.14526555,0.0245902883 1.16678149,0.022875569 1.18829742,0.0221047041 C1.20043703,0.0216494689 1.21265099,0.0216813354 1.22482853,0.0214704097 C1.22690744,0.0214430956 1.22931715,0.0216813354 1.23096662,0.0209408194 C1.23806222,0.0178209408 1.24439757,0.015969651 1.25202124,0.0209939302 C1.25423217,0.0224749621 1.26043551,0.0195128983 1.26475873,0.0196449165 C1.28073141,0.0201001517 1.29627314,0.0195918058 1.31082701,0.0130880121 C1.31432473,0.0115280728 1.31930804,0.0119514416 1.32363126,0.0117663126 C1.32940668,0.0115280728 1.3370956,0.009676783 1.34062671,0.0118983308 C1.34788619,0.0164992413 1.35300152,0.0106843703 1.35923824,0.0115022762 C1.36802737,0.0124655896 1.37686233,0.0129508767 1.3857041,0.0129559939 C1.38980121,0.0130880121 1.39392109,0.0125599393 1.39986039,0.012215478 C1.40923217,0.0198027314 1.42345524,0.0214172989 1.43721548,0.0218664643 C1.45206525,0.0223687405 1.46609105,0.0249013657 1.48051138,0.0270758725 C1.50691502,0.0310682853 1.53383915,0.0311487102 1.56073445,0.0247996965 C1.56726859,0.0328907436 1.57604704,0.0308543247 1.58578149,0.0271259484 C1.58710167,0.0299817906 1.58812443,0.0321760243 1.58941123,0.0349256449 L1.60551442,0.0349256449 C1.60693323,0.0327572079 1.6085827,0.030245827 1.61039909,0.0274688923 C1.61930956,0.0292139605 1.62752656,0.0315144158 1.6359742,0.0322549317 C1.64653414,0.0331805766 1.6568953,0.0312503794 1.66722458,0.0289757208 C1.68016085,0.0261198786 1.69273293,0.0260409712 1.70607132,0.0306449165 C1.71498179,0.0337116844 1.72633232,0.0320728376 1.73656297,0.032892261 C1.74352656,0.033447648 1.75048862,0.0343459788 1.75732018,0.0355629742 C1.7743475,0.0385250379 1.79127618,0.0417769347 1.80965706,0.0451881639 L1.80965706,0.0579863429 C1.81246282,0.0593884674 1.81605918,0.061185129 1.82064643,0.0634855842 C1.82394689,0.0772352049 1.82816995,0.0915660091 1.83044765,0.106109256 C1.83114112,0.110578149 1.82645524,0.115575114 1.82424279,0.120361153 C1.81546434,0.113485584 1.81130653,0.119905918 1.80540061,0.122555387 C1.80777693,0.124855842 1.80962519,0.126626707 1.81196813,0.12892868 C1.80820637,0.132735964 1.80401517,0.135962064 1.80144158,0.139854325 C1.79873596,0.143899848 1.79503945,0.149135053 1.79629287,0.152863429 C1.79791047,0.157543247 1.79523065,0.161512898 1.79625948,0.165449165 C1.79741426,0.169918058 1.8017041,0.173884674 1.80269499,0.178347496 C1.80394992,0.183978756 1.80352049,0.189880121 1.80328983,0.195646434 C1.80305918,0.200326252 1.801739,0.204954476 1.80137633,0.209634294 C1.8006176,0.219787557 1.80187102,0.229095599 1.81022003,0.238084977 C1.81688619,0.245250379 1.81982246,0.254664643 1.82418058,0.263177542 C1.82748103,0.269682853 1.8304173,0.276318665 1.83401517,0.283907436 C1.83694891,0.284595346 1.84130501,0.285599899 1.84708346,0.286921093 C1.83124431,0.302336874 1.81365554,0.316192716 1.80589985,0.33560091 C1.80731866,0.337292868 1.80910015,0.339461305 1.81094841,0.341629742 C1.8077481,0.347711684 1.80593323,0.353528073 1.80751593,0.360350531 C1.8089075,0.367301213 1.80896364,0.374453219 1.80768134,0.381424886 C1.80632701,0.390441558 1.8075632,0.39965745 1.81124583,0.407998483 C1.8122352,0.410405159 1.81302731,0.413127466 1.81500759,0.414952959 C1.82411229,0.423388467 1.827217,0.434308042 1.83408194,0.443669196 C1.83431259,0.443986343 1.83401669,0.44454173 1.83385129,0.445863429 C1.83227996,0.44735358 1.83050192,0.4486093 1.82857208,0.449591806 C1.82114719,0.452474962 1.81477845,0.454616085 1.81659332,0.463737481 C1.8175827,0.468681335 1.81161002,0.474525038 1.80837633,0.480792109 C1.80640364,0.481268589 1.80299697,0.482088012 1.79692564,0.48354173 C1.803261,0.48475569 1.80685888,0.485444613 1.81028983,0.486106222 C1.81718665,0.493377845 1.82394689,0.500569044 1.83279514,0.509955994 C1.83216844,0.513790592 1.83117754,0.519792109 1.82985736,0.527751138 C1.83599545,0.534758725 1.84328832,0.543880121 1.85163733,0.552341426 C1.85803945,0.55884522 1.85801062,0.565271624 1.85460698,0.572358118 C1.86147041,0.580793627 1.86147041,0.580793627 1.85886343,0.586901366 C1.86147041,0.587905918 1.86414264,0.588937785 1.86711381,0.590074355 C1.86493627,0.593908953 1.86295599,0.597424886 1.86064643,0.60152352 C1.86391351,0.610725341 1.86589378,0.620852807 1.87767375,0.625849772 C1.87684825,0.633200303 1.87602428,0.640127466 1.8751654,0.647637329 C1.85666616,0.655969651 1.85287102,0.670644917 1.8541912,0.6886783 Z" id="Path_16"></path>
        </g>
    </g>
</svg>